<svg xmlns="http://www.w3.org/2000/svg" width="100" height="100"><path d="M43.75 32.5c-2.758 0-5-2.242-5-5s2.242-5 5-5 5 2.242 5 5-2.242 5-5 5zm0-8.75A3.756 3.756 0 0040 27.5a3.756 3.756 0 003.75 3.75 3.756 3.756 0 003.75-3.75 3.756 3.756 0 00-3.75-3.75zM69.375 50h-26.25a.624.624 0 110-1.25h26.25c.344 0 .625.281.625.625a.627.627 0 01-.625.625zm-42.5 0h-3.75a.624.624 0 110-1.25h3.75c.344 0 .625.281.625.625a.627.627 0 01-.625.625zm42.5-3.75h-30a.626.626 0 01-.566-.355.641.641 0 01.078-.66l14.918-18.59a.62.62 0 01.488-.235c.156-.027.363.082.48.235l15.09 18.585c.145.184.18.442.078.665a.626.626 0 01-.566.355zM40.68 45h27.386l-13.77-16.96zm0 0"/><path d="M41.875 46.25h-18.75a.629.629 0 01-.465-1.047l12.5-13.75a.637.637 0 01.457-.203c.168-.031.34.07.457.188l8.09 8.347a.627.627 0 01-.902.871l-7.63-7.867L24.536 45h17.34c.344 0 .625.281.625.625a.627.627 0 01-.625.625zm-5 3.75h-6.25a.624.624 0 110-1.25h6.25c.344 0 .625.281.625.625a.627.627 0 01-.625.625zm0 0"/><path d="M70.426 63.75H15.629a4.38 4.38 0 01-4.379-4.379V13.13a4.38 4.38 0 014.379-4.379H76.87a4.38 4.38 0 014.379 4.379v39.836a.63.63 0 01-.625.625.63.63 0 01-.625-.625V13.129A3.136 3.136 0 0076.871 10H15.63a3.136 3.136 0 00-3.129 3.129V59.37a3.136 3.136 0 003.129 3.129h54.797a.624.624 0 110 1.25zm0 0"/><path d="M76.516 68.512a.558.558 0 01-.192-.04l-4.347-1.44a2.503 2.503 0 01-1.63-1.739l-3.34-12.695c-.23-.875.02-1.774.653-2.41a2.482 2.482 0 012.41-.653l12.696 3.348c.824.21 1.472.82 1.734 1.625l1.445 4.34a.62.62 0 01-.394.793.63.63 0 01-.785-.399l-1.45-4.34a1.246 1.246 0 00-.87-.816l-12.7-3.34a1.223 1.223 0 00-1.2.324c-.32.328-.44.77-.323 1.203l3.34 12.704c.109.41.41.73.812.875l4.34 1.437a.629.629 0 01-.2 1.223zm0 0"/><path d="M78.285 71.27a2.462 2.462 0 01-1.765-.73 2.509 2.509 0 01-.735-1.77c0-.668.262-1.301.735-1.77l7.953-7.957c.949-.941 2.593-.941 3.539 0a2.51 2.51 0 010 3.539l-7.957 7.957a2.491 2.491 0 01-1.77.73zm7.957-11.707c-.336 0-.648.128-.887.363l-7.953 7.96a1.225 1.225 0 00-.367.884c0 .328.13.648.367.882.47.473 1.293.473 1.77 0l7.945-7.957a1.238 1.238 0 000-1.77 1.233 1.233 0 00-.875-.362zm-9.285 7.878h.016zm-.441-6.523a1.88 1.88 0 01-1.325-.547 1.863 1.863 0 010-2.644 1.865 1.865 0 012.653 0 1.87 1.87 0 01-1.328 3.191zm-.442-1.434a.62.62 0 00.883 0 .64.64 0 000-.886.634.634 0 00-.883 0 .64.64 0 000 .886zm0 0"/><path d="M75.633 58.785a.608.608 0 01-.442-.183l-7.07-7.07a.634.634 0 010-.884.613.613 0 01.883 0l7.07 7.067c.25.25.25.644 0 .887a.608.608 0 01-.441.183zm0 0"/></svg>