<svg xmlns="http://www.w3.org/2000/svg" width="100" height="100"><path d="M86.25 7.5h-72.5a1.25 1.25 0 00-1.25 1.25v50c0 .691.559 1.25 1.25 1.25h31.965l.754 4.27a1.251 1.251 0 002.117.664l2.715-2.715 9.918 9.914c.242.246.562.367.883.367.32 0 .636-.121.882-.367l5.399-5.399a1.252 1.252 0 000-1.77L63.418 60H86.25a1.25 1.25 0 001.25-1.25v-50a1.25 1.25 0 00-1.25-1.25zm-37.5 40.645l-3.531-.625a1.21 1.21 0 00-.864.16 1.206 1.206 0 00-.605-.18c-1.21 0-3.508-4.406-3.727-12.504a5.001 5.001 0 004.028-7.93A6.23 6.23 0 0045 23.75a6.258 6.258 0 00-6.25-6.25c-1.59 0-3.11.61-4.25 1.672a4.911 4.911 0 00-2-.422 5.005 5.005 0 00-4.957 5.648A5.009 5.009 0 0025 28.75c0 2.336 1.617 4.285 3.785 4.832-.008.059-.035.11-.035.168 0 8.895-2.477 13.75-3.75 13.75a1.25 1.25 0 100 2.5c4.102 0 6.25-8.176 6.25-16.25 0-.055-.023-.102-.031-.156a5.066 5.066 0 001.281-.516 5.08 5.08 0 003.96.457c.313.313.673.559 1.048.778C37.605 42.199 39.742 50 43.75 50c.07 0 .129-.027.195-.04l.227 1.29H21.25v-35h27.5zM30 31.25a2.502 2.502 0 01-2.5-2.5c0-1.125.758-2.117 1.848-2.406.347-.09.636-.328.797-.653.16-.32.171-.695.035-1.027a2.458 2.458 0 01-.18-.914c0-1.379 1.121-2.5 2.5-2.5.54 0 1.055.176 1.492.508.266.203.602.285.938.242.332-.047.629-.227.828-.496A3.719 3.719 0 0138.75 20a3.756 3.756 0 013.75 3.75 3.7 3.7 0 01-.992 2.535c-.23.25-.352.586-.332.926.023.344.18.66.441.883.563.472.883 1.168.883 1.906a2.502 2.502 0 01-4.613 1.344 1.258 1.258 0 00-1.051-.57 1.28 1.28 0 00-.61.16c-.902.503-2.105.382-2.886-.325a1.255 1.255 0 00-1.68 0 2.453 2.453 0 01-1.66.641zm18.512 30.219l-1.617-9.184-.352-1.992 3.238.574c.004.004.012 0 .016 0l7.918 1.399zm13.59 8.015l-9.036-9.035 3.633-3.633 9.031 9.036zM85 57.5H60.918l-2.45-2.45 2.548-2.55H81.25a1.251 1.251 0 000-2.5H59.273l-8.023-1.414V15A1.25 1.25 0 0050 13.75H20A1.25 1.25 0 0018.75 15v37.5c0 .691.559 1.25 1.25 1.25h24.613l.66 3.75H15V10h70zm0 0"/><path d="M58.75 23.75h22.5a1.25 1.25 0 001.25-1.25V15a1.25 1.25 0 00-1.25-1.25h-22.5A1.25 1.25 0 0057.5 15v7.5c0 .691.559 1.25 1.25 1.25zm1.25-7.5h20v5H60zM58.75 30h22.5a1.25 1.25 0 100-2.5h-22.5a1.25 1.25 0 100 2.5zm0 7.5h22.5a1.25 1.25 0 100-2.5h-22.5a1.25 1.25 0 100 2.5zm0 7.5h22.5a1.25 1.25 0 100-2.5h-22.5a1.25 1.25 0 100 2.5zm-27.5 3.75c.32 0 .64-.121.883-.367C34.969 45.55 35 42.625 35 42.5c0-.684-.55-1.234-1.234-1.242h-.016c-.68 0-1.234.547-1.25 1.226 0 .086-.07 2.067-2.133 4.133a1.247 1.247 0 000 1.766c.242.246.563.367.883.367zm7.5 0c.32 0 .64-.121.883-.367a1.247 1.247 0 000-1.766c-2.051-2.05-2.13-4.023-2.133-4.129a1.251 1.251 0 00-2.5.012c0 .125.031 3.05 2.867 5.883.242.246.563.367.883.367zm0 0"/></svg>