<svg xmlns="http://www.w3.org/2000/svg" width="100" height="100"><path d="M82.5 50h-65V21.25a3.749 3.749 0 013.75-3.75h2.5V15h-2.5a6.267 6.267 0 00-4.418 1.832A6.267 6.267 0 0015 21.25v35a6.267 6.267 0 001.832 4.418A6.267 6.267 0 0021.25 62.5h18.586l-.938 7.5H37.5c-1.34 0-2.578.715-3.246 1.875a3.74 3.74 0 000 3.75A3.745 3.745 0 0037.5 77.5h25c1.34 0 2.578-.715 3.25-1.875a3.76 3.76 0 000-3.75A3.756 3.756 0 0062.5 70h-1.395l-.937-7.5H78.75A6.25 6.25 0 0085 56.25v-35h-2.5zM63.75 73.75A1.25 1.25 0 0162.5 75h-25a1.25 1.25 0 110-2.5h25a1.25 1.25 0 011.25 1.25zM58.582 70H41.418l.937-7.5h15.293zM78.75 60h-57.5a3.749 3.749 0 01-3.75-3.75V52.5h65v3.75A3.749 3.749 0 0178.75 60zm0 0"/><path d="M75 55h2.5v2.5H75zM30 42.5h40a3.749 3.749 0 003.75-3.75v-10h-2.5V35h-42.5V15H70v-2.5H28.75V6.25c0-.691.559-1.25 1.25-1.25h40a1.25 1.25 0 011.25 1.25v5h2.5v-5A3.749 3.749 0 0070 2.5H30a3.749 3.749 0 00-3.75 3.75v32.5A3.749 3.749 0 0030 42.5zm41.25-5v1.25A1.25 1.25 0 0170 40H30a1.25 1.25 0 01-1.25-1.25V37.5zm0 0"/><path d="M31.25 7.5h5V10h-5zm7.5 0h5V10h-5zm25 0h5V10h-5zm-7.5 0h5V10h-5zm31.086 1.047L83.8 5.012a1.252 1.252 0 00-1.77 0L65.238 21.805a1.28 1.28 0 00-.3.492l-.887 2.652a1.25 1.25 0 00.304 1.278L62.585 28l1.77 1.766L66.125 28a1.247 1.247 0 001.277.301l2.653-.883c.183-.063.351-.164.488-.3l16.793-16.802a1.252 1.252 0 000-1.77zM68.984 25.133l-1.64.547-.676-.68.547-1.64 12.16-12.16 1.77 1.769zm13.934-13.934l-1.77-1.765 1.77-1.77 1.766 1.77zm0 0"/></svg>